<svg xmlns="http://www.w3.org/2000/svg" version="1.1" xmlns:xlink="http://www.w3.org/1999/xlink" xmlns:svgjs="http://svgjs.dev/svgjs" width="1500" height="1500" viewBox="0 0 1500 1500"><rect width="1500" height="1500" fill="#ffffff"></rect><g transform="matrix(0.6666666666666666,0,0,0.6666666666666666,249.39393939393938,438.5856950067477)"><svg viewBox="0 0 396 247" data-background-color="#ffffff" preserveAspectRatio="xMidYMid meet" height="935" width="1500" xmlns="http://www.w3.org/2000/svg" xmlns:xlink="http://www.w3.org/1999/xlink"><g id="tight-bounds" transform="matrix(1,0,0,1,0.2400000000000091,-0.09999999999999432)"><svg viewBox="0 0 395.52 247.2" height="247.2" width="395.52"><g><svg></svg></g><g><svg viewBox="0 0 395.52 247.2" height="247.2" width="395.52"><g transform="matrix(1,0,0,1,75.54432000000001,90.9760998977388)"><svg viewBox="0 0 244.43135999999996 65.24780020452238" height="65.24780020452238" width="244.43135999999996"><g><svg viewBox="0 0 244.43135999999996 65.24780020452238" height="65.24780020452238" width="244.43135999999996"><g><svg viewBox="0 0 244.43136 65.24780020452239" height="65.24780020452238" width="244.43135999999996"><g><svg viewBox="0 0 244.43136 65.24780020452239" height="65.24780020452239" width="244.43136"><g id="textblocktransform"><svg viewBox="0 0 244.43136 65.24780020452239" height="65.24780020452239" width="244.43136" id="textblock"><g><svg viewBox="0 0 244.43136 35.19154565644687" height="35.19154565644687" width="244.43136"><g transform="matrix(1,0,0,1,0,0)"><svg width="244.43136" viewBox="3.78 -33.48 297.59000000000003 42.86" height="35.19154565644687" data-palette-color="#000000"><path d="M17.05 0L6.6 0 6.6-3.43 16.65-3.43Q19.9-3.43 21.26-4.81 22.63-6.2 22.63-8.65L22.63-8.65 22.63-9.55Q22.63-12.05 21.24-13.43 19.85-14.8 16.4-14.8L16.4-14.8 6.63-14.8 6.63-18.07 16.35-18.07Q19.43-18.07 20.74-19.41 22.05-20.75 22.05-23.13L22.05-23.13 22.05-23.58Q22.05-25.93 20.79-27.24 19.53-28.55 16.32-28.55L16.32-28.55 6.53-28.55 6.53-31.95 16.7-31.95Q21.8-31.95 24-29.93 26.2-27.9 26.2-24.23L26.2-24.23 26.2-23.73Q26.2-20.8 24.8-19.13 23.4-17.45 20.45-17.13L20.45-17.13 20.43-16.98Q23.8-16.48 25.33-14.63 26.85-12.78 26.85-9.47L26.85-9.47 26.85-8.45Q26.85-4.48 24.55-2.24 22.25 0 17.05 0L17.05 0ZM7.88 0L3.78 0 3.78-31.95 7.88-31.95 7.88 0ZM36.47 0L32.42 0 32.42-24.4 36.47-24.4 36.47 0ZM34.45-28.4L34.45-28.4Q33.2-28.4 32.59-29.06 31.97-29.73 31.97-30.88L31.97-30.88 31.97-31Q31.97-32.18 32.59-32.83 33.2-33.48 34.45-33.48L34.45-33.48Q35.7-33.48 36.32-32.83 36.95-32.18 36.95-31L36.95-31 36.95-30.88Q36.95-29.7 36.32-29.05 35.7-28.4 34.45-28.4ZM63.55 0L59.5 0 59.5-15.18Q59.5-17.15 58.96-18.57 58.42-20 57.21-20.79 56-21.58 53.9-21.58L53.9-21.58Q51.97-21.58 50.56-20.85 49.15-20.13 48.27-18.89 47.4-17.65 47.05-16.07L47.05-16.07 46.32-18.95 47.2-18.95Q47.6-20.6 48.6-21.96 49.6-23.33 51.28-24.14 52.97-24.95 55.42-24.95L55.42-24.95Q58.32-24.95 60.11-23.85 61.9-22.75 62.72-20.69 63.55-18.63 63.55-15.63L63.55-15.63 63.55 0ZM47.22 0L43.17 0 43.17-24.4 47.22-24.4 47.05-18.55 47.22-18.32 47.22 0ZM79.32-7.3L79.32-7.3Q74.34-7.3 71.68-9.47 69.02-11.65 69.02-15.7L69.02-15.7 69.02-16.32Q69.02-18.85 70.06-20.73 71.09-22.6 73.37-23.66 75.64-24.73 79.32-24.83L79.32-24.83 91.77-25.23 91.77-22.03 84.42-22.28 84.39-22.1Q86.12-21.75 87.22-20.9 88.32-20.05 88.86-18.78 89.39-17.5 89.39-15.8L89.39-15.8 89.39-15.25Q89.39-11.38 86.84-9.34 84.29-7.3 79.32-7.3ZM79.14 6.15L79.14 6.15 79.72 6.15Q81.97 6.15 83.58 5.81 85.19 5.48 86.07 4.75 86.94 4.03 86.94 2.83L86.94 2.83 86.94 2.73Q86.94 1.33 85.93 0.59 84.92-0.15 82.47-0.38L82.47-0.38 75.57-1 76.72-1.05Q75.32-0.85 74.26-0.4 73.19 0.05 72.59 0.79 71.99 1.53 71.99 2.63L71.99 2.63 71.99 2.68Q71.99 3.95 72.87 4.73 73.74 5.5 75.34 5.83 76.94 6.15 79.14 6.15ZM79.64 9.38L78.92 9.38Q75.62 9.38 73.23 8.81 70.84 8.25 69.53 6.99 68.22 5.73 68.22 3.6L68.22 3.6 68.22 3.5Q68.22 2 68.93 1 69.64 0 70.86-0.58 72.07-1.15 73.57-1.35L73.57-1.35 73.54-1.5Q71.49-1.85 70.52-2.71 69.54-3.58 69.54-4.95L69.54-4.95 69.54-4.98Q69.54-5.93 69.98-6.6 70.42-7.28 71.31-7.68 72.19-8.08 73.57-8.18L73.57-8.18 73.57-8.68 78.22-7.5 76.32-7.55Q74.62-7.53 73.97-7.14 73.32-6.75 73.32-5.98L73.32-5.98 73.32-5.95Q73.32-5.13 74.24-4.7 75.17-4.28 77.39-4.03L77.39-4.03 83.32-3.43Q87.19-3.03 88.97-1.56 90.74-0.1 90.74 2.75L90.74 2.75 90.74 2.88Q90.74 5.15 89.39 6.6 88.04 8.05 85.57 8.71 83.09 9.38 79.64 9.38L79.64 9.38ZM79.27-10.3L79.27-10.3Q81.37-10.3 82.76-10.91 84.14-11.53 84.86-12.76 85.57-14 85.57-15.8L85.57-15.8 85.57-16.4Q85.57-18.15 84.88-19.38 84.19-20.6 82.82-21.24 81.44-21.88 79.37-21.88L79.37-21.88 79.22-21.88Q76.97-21.88 75.56-21.19 74.14-20.5 73.51-19.26 72.87-18.03 72.87-16.38L72.87-16.38 72.87-15.8Q72.87-14 73.58-12.78 74.29-11.55 75.72-10.93 77.14-10.3 79.27-10.3ZM105.69 0.55L105.69 0.55Q100.12 0.55 97.29-2.18 94.47-4.9 94.47-9.98L94.47-9.98 94.47-14.33Q94.47-19.48 97.09-22.26 99.72-25.05 104.77-25.05L104.77-25.05Q108.17-25.05 110.44-23.79 112.72-22.53 113.87-20.2 115.02-17.88 115.02-14.65L115.02-14.65 115.02-13.75Q115.02-12.95 114.95-12.15 114.89-11.35 114.79-10.58L114.79-10.58 111.07-10.58Q111.12-11.78 111.13-12.85 111.14-13.93 111.14-14.83L111.14-14.83Q111.14-17.05 110.43-18.59 109.72-20.13 108.3-20.94 106.89-21.75 104.77-21.75L104.77-21.75Q101.62-21.75 100.04-19.93 98.47-18.1 98.47-14.7L98.47-14.7 98.47-12.38 98.49-11.88 98.49-9.55Q98.49-8.03 98.94-6.8 99.39-5.58 100.35-4.69 101.32-3.8 102.8-3.34 104.29-2.88 106.34-2.88L106.34-2.88Q108.72-2.88 110.77-3.5 112.82-4.13 114.62-5.2L114.62-5.2 114.24-1.7Q112.62-0.68 110.47-0.06 108.32 0.55 105.69 0.55ZM113.94-10.58L96.59-10.58 96.59-13.63 113.94-13.63 113.94-10.58ZM138.71 0.58L138.71 0.58Q136.41 0.58 134.5 0.2 132.59-0.18 131.09-0.73 129.59-1.28 128.59-1.83L128.59-1.83 128.16-5.95Q130.09-4.8 132.7-3.94 135.31-3.08 138.39-3.08L138.39-3.08Q142.09-3.08 143.86-4.39 145.64-5.7 145.64-8.33L145.64-8.33 145.64-8.72Q145.64-10.45 144.94-11.55 144.24-12.65 142.57-13.4 140.91-14.15 138.06-14.8L138.06-14.8Q134.46-15.65 132.3-16.81 130.14-17.98 129.17-19.73 128.21-21.48 128.21-24.08L128.21-24.08 128.21-24.3Q128.21-28.23 130.79-30.36 133.36-32.5 138.59-32.5L138.59-32.5Q142.01-32.5 144.42-31.8 146.84-31.1 148.36-30.25L148.36-30.25 148.74-26.45Q146.96-27.5 144.6-28.24 142.24-28.98 139.19-28.98L139.19-28.98Q136.76-28.98 135.26-28.4 133.76-27.83 133.09-26.75 132.41-25.68 132.41-24.15L132.41-24.15 132.41-24.05Q132.41-22.5 133.07-21.4 133.74-20.3 135.4-19.5 137.06-18.7 140.14-17.95L140.14-17.95Q143.66-17.13 145.79-16.05 147.91-14.98 148.87-13.25 149.84-11.53 149.84-8.75L149.84-8.75 149.84-8.22Q149.84-3.9 147.05-1.66 144.26 0.58 138.71 0.58ZM175.76 0L171.71 0 171.71-15.18Q171.71-17.15 171.17-18.57 170.63-20 169.42-20.79 168.21-21.58 166.11-21.58L166.11-21.58Q164.18-21.58 162.78-20.85 161.38-20.13 160.52-18.89 159.66-17.65 159.31-16.07L159.31-16.07 158.41-18.95 159.46-18.95Q159.83-20.6 160.83-21.96 161.83-23.33 163.52-24.14 165.21-24.95 167.63-24.95L167.63-24.95Q170.53-24.95 172.32-23.85 174.11-22.75 174.93-20.69 175.76-18.63 175.76-15.63L175.76-15.63 175.76 0ZM159.43 0L155.38 0 155.38-33.13 159.41-33.13 159.41-25.18 159.28-18.18 159.43-17.85 159.43 0ZM191.73 0.63L191.73 0.63Q186.48 0.63 183.77-2.21 181.06-5.05 181.06-10.38L181.06-10.38 181.06-14.1Q181.06-19.4 183.78-22.23 186.51-25.05 191.73-25.05L191.73-25.05Q196.98-25.05 199.69-22.23 202.41-19.4 202.41-14.1L202.41-14.1 202.41-10.38Q202.41-5.05 199.69-2.21 196.98 0.63 191.73 0.63ZM191.73-2.68L191.73-2.68Q194.98-2.68 196.67-4.6 198.36-6.53 198.36-10.15L198.36-10.15 198.36-14.33Q198.36-17.93 196.67-19.84 194.98-21.75 191.73-21.75L191.73-21.75Q188.51-21.75 186.81-19.84 185.11-17.93 185.11-14.33L185.11-14.33 185.11-10.15Q185.11-6.53 186.81-4.6 188.51-2.68 191.73-2.68ZM220.05 0.53L220.05 0.53Q217.8 0.53 216.15-0.23 214.5-0.98 213.48-2.38 212.45-3.78 212.1-5.63L212.1-5.63 210.78-5.63 211.95-9.43Q212.05-7.23 212.94-5.76 213.83-4.3 215.35-3.58 216.88-2.85 218.8-2.85L218.8-2.85Q221.88-2.85 223.52-4.65 225.15-6.45 225.15-9.93L225.15-9.93 225.15-14.6Q225.15-18.05 223.53-19.85 221.9-21.65 218.8-21.65L218.8-21.65Q216.95-21.65 215.53-20.93 214.1-20.2 213.17-18.95 212.23-17.7 211.88-16.1L211.88-16.1 210.88-18.93 212.05-18.93Q212.45-20.6 213.42-21.96 214.38-23.33 216.07-24.14 217.75-24.95 220.23-24.95L220.23-24.95Q224.63-24.95 226.93-22.21 229.23-19.48 229.23-14.28L229.23-14.28 229.23-10.23Q229.23-4.98 226.92-2.23 224.6 0.53 220.05 0.53ZM212.05 8.6L208.03 8.6 208.03-24.4 212.08-24.4 211.9-18.53 211.95-17.28 211.95-7 211.93-6.18 212.05 0.68 212.05 8.6ZM246.9 0.53L246.9 0.53Q244.65 0.53 243-0.23 241.35-0.98 240.33-2.38 239.3-3.78 238.95-5.63L238.95-5.63 237.63-5.63 238.8-9.43Q238.9-7.23 239.79-5.76 240.68-4.3 242.2-3.58 243.73-2.85 245.65-2.85L245.65-2.85Q248.73-2.85 250.36-4.65 252-6.45 252-9.93L252-9.93 252-14.6Q252-18.05 250.38-19.85 248.75-21.65 245.65-21.65L245.65-21.65Q243.8-21.65 242.38-20.93 240.95-20.2 240.01-18.95 239.08-17.7 238.73-16.1L238.73-16.1 237.73-18.93 238.9-18.93Q239.3-20.6 240.26-21.96 241.23-23.33 242.91-24.14 244.6-24.95 247.08-24.95L247.08-24.95Q251.48-24.95 253.78-22.21 256.08-19.48 256.08-14.28L256.08-14.28 256.08-10.23Q256.08-4.98 253.76-2.23 251.45 0.53 246.9 0.53ZM238.9 8.6L234.88 8.6 234.88-24.4 238.93-24.4 238.75-18.53 238.8-17.28 238.8-7 238.78-6.18 238.9 0.68 238.9 8.6ZM271.97 0.55L271.97 0.55Q266.4 0.55 263.57-2.18 260.75-4.9 260.75-9.98L260.75-9.98 260.75-14.33Q260.75-19.48 263.37-22.26 266-25.05 271.05-25.05L271.05-25.05Q274.45-25.05 276.72-23.79 279-22.53 280.15-20.2 281.3-17.88 281.3-14.65L281.3-14.65 281.3-13.75Q281.3-12.95 281.24-12.15 281.17-11.35 281.07-10.58L281.07-10.58 277.35-10.58Q277.4-11.78 277.41-12.85 277.42-13.93 277.42-14.83L277.42-14.83Q277.42-17.05 276.71-18.59 276-20.13 274.59-20.94 273.17-21.75 271.05-21.75L271.05-21.75Q267.9-21.75 266.32-19.93 264.75-18.1 264.75-14.7L264.75-14.7 264.75-12.38 264.77-11.88 264.77-9.55Q264.77-8.03 265.22-6.8 265.67-5.58 266.63-4.69 267.6-3.8 269.09-3.34 270.57-2.88 272.62-2.88L272.62-2.88Q275-2.88 277.05-3.5 279.1-4.13 280.9-5.2L280.9-5.2 280.52-1.7Q278.9-0.68 276.75-0.06 274.6 0.55 271.97 0.55ZM280.22-10.58L262.87-10.58 262.87-13.63 280.22-13.63 280.22-10.58ZM290.55-14.93L290.55-14.93 289.62-18.05 290.62-18.1Q291.42-21.2 293.37-22.99 295.32-24.78 298.55-24.78L298.55-24.78Q299.35-24.78 299.98-24.65 300.62-24.53 301.12-24.35L301.12-24.35 301.37-20.43Q300.75-20.63 299.98-20.75 299.22-20.88 298.3-20.88L298.3-20.88Q295.55-20.88 293.51-19.35 291.47-17.82 290.55-14.93ZM290.75 0L286.7 0 286.7-24.4 290.65-24.4 290.45-17.2 290.75-16.9 290.75 0Z" opacity="1" transform="matrix(1,0,0,1,0,0)" fill="#000000" class="wordmark-text-0" data-fill-palette-color="primary" id="text-0"></path></svg></g></svg></g><g transform="matrix(1,0,0,1,0,43.49942498883822)"><svg viewBox="0 0 244.43136 21.748375215684167" height="21.748375215684167" width="244.43136"><g transform="matrix(1,0,0,1,0,0)"><svg width="244.43136" viewBox="4 -37.5 561.95 50" height="21.748375215684167" data-palette-color="#89939e"><path d="M23.35-25.6L23.35-25.6Q23.35-18.4 18.4-15.95L18.4-15.95 25.95 0 22.3 0 15.2-14.9Q13.4-14.6 11.25-14.6L11.25-14.6 7.4-14.6 7.4 0 4 0 4-35 11.25-35Q17.35-35 20.15-33.1L20.15-33.1Q23.35-30.95 23.35-25.6ZM11-32.25L7.4-32.25 7.4-17.35 11-17.35Q15.45-17.35 17.7-19.15 19.95-20.95 19.95-25.4L19.95-25.4Q19.95-31.1 14.75-32L14.75-32Q13.1-32.25 11-32.25L11-32.25ZM37.1-19.9L36.2-22.3Q41.65-25 45.75-25.15L45.75-25.15Q49-25.15 50.77-24.33 52.55-23.5 53.65-22.03 54.75-20.55 54.75-17.9L54.75-17.9 54.75 0 51.5 0 51.5-1.9Q44.65 0.2 42.7 0.2L42.7 0.2Q42.6 0.2 42.55 0.2L42.55 0.2Q38.05 0.2 36.4-2.55L36.4-2.55Q35.8-3.55 35.72-4.5 35.65-5.45 35.65-6.1L35.65-6.1Q35.65-7.9 37.05-9.33 38.45-10.75 40.4-11.25L40.4-11.25Q43.7-12.1 51.5-12.75L51.5-12.75 51.5-16.8Q51.5-22.25 45.8-22.25L45.8-22.25Q41.8-22.25 37.1-19.9L37.1-19.9ZM38.7-5.7L38.7-5.7Q38.7-2.1 43.65-2.1L43.65-2.1Q47.6-2.1 51.5-3.8L51.5-3.8 51.5-10.95Q43.7-9.85 41.85-9.25L41.85-9.25Q38.7-8.25 38.7-5.7ZM69.19-25.25L69.19-22.25Q72.94-25 76.29-25.15L76.29-25.15Q79.34-25.15 80.99-24.4 82.64-23.65 83.72-22.28 84.79-20.9 84.79-18.4L84.79-18.4 84.79 0 81.54 0 81.54-17.55Q81.54-19.4 80.74-20.4L80.74-20.4Q79.14-22.25 75.84-22.25L75.84-22.25Q72.69-22.1 69.19-20.2L69.19-20.2 69.19 0 65.94 0 65.94-25 69.19-25.25ZM108.89-25.25L108.89-25.25Q111.84-25.25 114.49-23.5L114.49-23.5 114.49-37.25 117.74-37.5 117.74-1.15 117.49-1.15Q115.94-0.5 112.32-0.15 108.69 0.2 107.29 0.2L107.29 0.2Q103.09 0.2 100.34-1.9L100.34-1.9Q96.49-4.8 96.49-11.45 96.49-18.1 100.07-21.68 103.64-25.25 108.89-25.25ZM114.49-3.2L114.49-21.35Q111.99-22.3 109.59-22.3L109.59-22.3Q104.99-22.3 102.37-19.5 99.74-16.7 99.74-11.55 99.74-6.4 102.59-4.3L102.59-4.3Q104.64-2.7 107.77-2.7 110.89-2.7 114.49-3.2L114.49-3.2ZM129.39-6.4L129.39-6.4Q128.49-8.8 128.49-12L128.49-12Q128.49-18.15 131.94-21.68 135.39-25.2 140.59-25.2L140.59-25.2Q148.74-25.2 151.29-18.6L151.29-18.6Q152.24-16.2 152.24-13L152.24-13Q152.24-6.85 148.79-3.33 145.34 0.2 140.14 0.2L140.14 0.2Q131.99 0.2 129.39-6.4ZM131.74-12.35Q131.74-7.75 134.11-5.23 136.49-2.7 140.24-2.7 143.99-2.7 146.49-5.38 148.99-8.05 148.99-12.65 148.99-17.25 146.64-19.78 144.29-22.3 140.51-22.3 136.74-22.3 134.24-19.63 131.74-16.95 131.74-12.35ZM171.79-22.25L171.79-22.25Q168.99-22.1 165.74-20.4L165.74-20.4 165.74 0 162.49 0 162.49-25 165.74-25.25 165.74-22.45Q169.09-25 172.24-25.15L172.24-25.15Q177.54-25.15 179.54-22.5L179.54-22.5Q183.34-25 186.89-25.15L186.89-25.15Q189.94-25.15 191.59-24.4 193.24-23.65 194.31-22.28 195.39-20.9 195.39-18.4L195.39-18.4 195.39 0 192.14 0 192.14-17.55Q192.14-19.4 191.29-20.4L191.29-20.4Q189.74-22.25 186.89-22.25L186.89-22.25Q183.89-22.25 180.49-20.45L180.49-20.45Q180.74-19.45 180.74-18.4L180.74-18.4 180.74 0 177.49 0 177.49-17.55Q177.49-19.4 176.69-20.4L176.69-20.4Q175.09-22.25 171.79-22.25ZM209.13-25L212.38-25.25 212.38 0 209.13 0 209.13-25ZM210.63-31.7Q209.63-31.7 209.11-32.35 208.58-33 208.58-34 208.58-35 209.16-35.63 209.73-36.25 210.73-36.25 211.73-36.25 212.36-35.63 212.98-35 212.98-33.9 212.98-32.8 212.31-32.25 211.63-31.7 210.63-31.7ZM224.28-22.1L224.23-25 242.48-25 242.93-22.1 227.33-2.9 243.58-2.9 243.98 0 223.43 0 222.98-2.9 238.78-22.1 224.28-22.1ZM255.98-12.3L255.98-11.5Q255.98-2.7 264.38-2.7L264.38-2.7Q267.93-2.7 270.88-3.65L270.88-3.65Q271.63-3.9 271.93-4.05L271.93-4.05 272.68-1.4Q270.93-0.35 266.33 0.1L266.33 0.1Q265.03 0.2 263.58 0.2L263.58 0.2Q259.38 0.2 256.58-1.9L256.58-1.9Q252.73-4.75 252.73-11.4 252.73-18.05 256.2-21.63 259.68-25.2 264.63-25.2 269.58-25.2 272.08-22L272.08-22Q273.98-19.45 273.98-15.25L273.98-15.25Q273.98-14.25 273.88-13.15L273.88-13.15 256.03-13.15Q255.98-12.75 255.98-12.3L255.98-12.3ZM264.83-22.1L264.83-22.1Q261.73-22.1 259.53-20.23 257.33-18.35 256.48-15.4L256.48-15.4 271.03-15.4Q270.78-20.95 266.73-21.85L266.73-21.85Q265.83-22.1 264.83-22.1ZM296.78-25.25L296.78-25.25Q299.73-25.25 302.38-23.5L302.38-23.5 302.38-37.25 305.63-37.5 305.63-1.15 305.38-1.15Q303.83-0.5 300.2-0.15 296.58 0.2 295.18 0.2L295.18 0.2Q290.98 0.2 288.23-1.9L288.23-1.9Q284.38-4.8 284.38-11.45 284.38-18.1 287.95-21.68 291.53-25.25 296.78-25.25ZM302.38-3.2L302.38-21.35Q299.88-22.3 297.48-22.3L297.48-22.3Q292.88-22.3 290.25-19.5 287.63-16.7 287.63-11.55 287.63-6.4 290.48-4.3L290.48-4.3Q292.53-2.7 295.65-2.7 298.78-2.7 302.38-3.2L302.38-3.2ZM358.27-34.1L358.27-34.1 357.67-31.25Q353.82-32.1 351.12-32.1L351.12-32.1Q341.42-32.1 341.42-26.2L341.42-26.2Q341.42-23.95 342.85-22.75 344.27-21.55 346.45-20.78 348.62-20 351.12-19.38 353.62-18.75 355.77-17.7L355.77-17.7Q360.82-15.2 360.82-10.05 360.82-4.9 356.97-2.25L356.97-2.25Q353.67 0.05 348.27 0.05L348.27 0.05Q341.57 0.05 336.97-3L336.97-3 338.27-5.55Q339.62-4.6 342.12-3.78 344.62-2.95 346.97-2.95L346.97-2.95Q351.57-2.95 354.22-4.45L354.22-4.45Q357.42-6.3 357.42-9.75L357.42-9.75Q357.42-12.3 356-13.73 354.57-15.15 352.4-16.03 350.22-16.9 347.72-17.53 345.22-18.15 343.07-19.1L343.07-19.1Q338.02-21.3 338.02-25.65 338.02-30 341.02-32.55 344.02-35.1 349.52-35.1L349.52-35.1Q353.77-35.1 358.27-34.1ZM375.02-37.5L375.02-22.15Q378.97-25 382.62-25.15L382.62-25.15Q385.72-25.15 387.37-24.4 389.02-23.65 390.07-22.28 391.12-20.9 391.12-18.4L391.12-18.4 391.12 0 387.87 0 387.87-17.55Q387.87-19.4 387.07-20.4L387.07-20.4Q385.47-22.25 382.17-22.25L382.17-22.25Q378.92-22.1 375.02-20.15L375.02-20.15 375.02 0 371.77 0 371.77-37.25 375.02-37.5ZM401.87-6.4L401.87-6.4Q400.97-8.8 400.97-12L400.97-12Q400.97-18.15 404.42-21.68 407.87-25.2 413.07-25.2L413.07-25.2Q421.22-25.2 423.77-18.6L423.77-18.6Q424.72-16.2 424.72-13L424.72-13Q424.72-6.85 421.27-3.33 417.82 0.2 412.62 0.2L412.62 0.2Q404.47 0.2 401.87-6.4ZM404.22-12.35Q404.22-7.75 406.59-5.23 408.97-2.7 412.72-2.7 416.47-2.7 418.97-5.38 421.47-8.05 421.47-12.65 421.47-17.25 419.12-19.78 416.77-22.3 412.99-22.3 409.22-22.3 406.72-19.63 404.22-16.95 404.22-12.35ZM451.76-3.5Q450.11-1.85 448.09-1.03 446.06-0.2 444.61-0.1 443.16 0 441.76 0 440.36 0 438.71-0.25L438.71-0.25 438.71 12.25 435.46 12.5 435.46-23.7Q436.56-24.05 438.84-24.75 441.11-25.45 443.69-25.45 446.26-25.45 448.14-25.03 450.01-24.6 451.61-23.4L451.61-23.4Q455.36-20.5 455.36-13.8 455.36-7.1 451.76-3.5L451.76-3.5ZM438.71-21.7L438.71-2.8Q440.21-2.45 441.91-2.45L441.91-2.45Q446.81-2.45 449.46-5.35 452.11-8.25 452.11-13.5 452.11-18.75 449.41-21L449.41-21Q447.51-22.55 444.54-22.55 441.56-22.55 438.71-21.7L438.71-21.7ZM481.91-3.5Q480.26-1.85 478.24-1.03 476.21-0.2 474.76-0.1 473.31 0 471.91 0 470.51 0 468.86-0.25L468.86-0.25 468.86 12.25 465.61 12.5 465.61-23.7Q466.71-24.05 468.99-24.75 471.26-25.45 473.84-25.45 476.41-25.45 478.29-25.03 480.16-24.6 481.76-23.4L481.76-23.4Q485.51-20.5 485.51-13.8 485.51-7.1 481.91-3.5L481.91-3.5ZM468.86-21.7L468.86-2.8Q470.36-2.45 472.06-2.45L472.06-2.45Q476.96-2.45 479.61-5.35 482.26-8.25 482.26-13.5 482.26-18.75 479.56-21L479.56-21Q477.66-22.55 474.69-22.55 471.71-22.55 468.86-21.7L468.86-21.7ZM496.31-25L499.56-25.25 499.56 0 496.31 0 496.31-25ZM497.81-31.7Q496.81-31.7 496.28-32.35 495.76-33 495.76-34 495.76-35 496.33-35.63 496.91-36.25 497.91-36.25 498.91-36.25 499.53-35.63 500.16-35 500.16-33.9 500.16-32.8 499.48-32.25 498.81-31.7 497.81-31.7ZM515.61-25.25L515.61-22.25Q519.36-25 522.71-25.15L522.71-25.15Q525.76-25.15 527.41-24.4 529.06-23.65 530.13-22.28 531.21-20.9 531.21-18.4L531.21-18.4 531.21 0 527.96 0 527.96-17.55Q527.96-19.4 527.16-20.4L527.16-20.4Q525.56-22.25 522.26-22.25L522.26-22.25Q519.11-22.1 515.61-20.2L515.61-20.2 515.61 0 512.36 0 512.36-25 515.61-25.25ZM547-9.65L547-9.65Q543.3-11.5 543.3-16.6L543.3-16.6Q543.3-20.8 546.2-23 549.1-25.2 553.6-25.2L553.6-25.2Q554.8-25.2 556.55-24.95L556.55-24.95 565.95-25.2 565.85-23.3 560.4-23.3Q563.15-21.25 563.15-17.13 563.15-13 560.4-10.78 557.65-8.55 553.3-8.55L553.3-8.55Q550.5-8.55 548.65-9.05L548.65-9.05Q547.7-8.15 547.7-6.95L547.7-6.95Q547.7-5.25 549.58-4.5 551.45-3.75 554-3.4L554-3.4Q559.65-2.65 562.15-1.3L562.15-1.3Q565.75 0.7 565.75 4.85 565.75 9 561.8 11L561.8 11Q558.8 12.5 554.55 12.5 550.3 12.5 548 11.85L548 11.85Q541.95 10.1 541.95 5.35 541.95 0.6 547.3-2.7L547.3-2.7Q545.2-4.25 545.2-6.3 545.2-8.35 547-9.65ZM562.5 4.8L562.5 4.8Q562.5 1.55 558.2 0.3L558.2 0.3Q557-0.05 553.9-0.55 550.8-1.05 549.05-1.75L549.05-1.75Q545.2 1.45 545.2 4.45L545.2 4.45Q545.2 5.75 545.6 6.6 546 7.45 547 8.1L547 8.1Q549.2 9.6 553.7 9.6L553.7 9.6Q559.6 9.6 561.7 7.1L561.7 7.1Q562.5 6.15 562.5 4.8ZM559.75-17.25L559.75-17.25Q559.75-22.55 553.45-22.55L553.45-22.55Q550.45-22.55 548.5-21.18 546.55-19.8 546.55-16.98 546.55-14.15 547.95-12.68 549.35-11.2 552.68-11.2 556-11.2 557.88-12.8 559.75-14.4 559.75-17.25Z" opacity="1" transform="matrix(1,0,0,1,0,0)" fill="#000000" class="slogan-text-1" data-fill-palette-color="secondary" id="text-1"></path></svg></g></svg></g></svg></g></svg></g></svg></g></svg></g></svg></g><path d="M205.553 84.976L205.553 21.779 1.911 21.779 1.911 225.421 205.553 225.421 205.553 162.224 202.379 162.224 202.379 222.247 5.084 222.247 5.084 24.953 202.379 24.953 202.379 84.976Z" fill="#000000" stroke="transparent" data-fill-palette-color="tertiary"></path></svg></g><defs></defs></svg><rect width="395.52" height="247.2" fill="none" stroke="none" visibility="hidden"></rect></g></svg></g></svg>